<svg xmlns="http://www.w3.org/2000/svg" height="750pt" version="1.1" viewBox="-6 0 750 750" width="750pt">
<g id="surface1">
<path d="M 12.5 750 L 212.5 750 C 219.40625 750 225 744.40625 225 737.5 L 225 462.5 C 225 459.183594 223.679688 456.007812 221.335938 453.664062 L 187.5 419.824219 L 187.5 375 C 187.5 368.09375 181.90625 362.5 175 362.5 L 150 362.5 L 150 168.75 C 150 116.972656 191.972656 75 243.75 75 C 295.527344 75 337.5 116.972656 337.5 168.75 L 337.5 568.75 C 337.5 668.851562 418.648438 750 518.75 750 C 618.851562 750 700 668.851562 700 568.75 L 700 262.5 L 725 262.5 C 731.90625 262.5 737.5 256.90625 737.5 250 L 737.5 87.5 C 737.5 80.59375 731.90625 75 725 75 L 712.5 75 L 712.5 12.5 C 712.5 5.59375 706.90625 0 700 0 L 625 0 C 618.09375 0 612.5 5.59375 612.5 12.5 L 612.5 75 L 600 75 C 593.09375 75 587.5 80.59375 587.5 87.5 L 587.5 250 C 587.5 256.90625 593.09375 262.5 600 262.5 L 625 262.5 L 625 568.75 C 625 627.429688 577.429688 675 518.75 675 C 460.070312 675 412.5 627.429688 412.5 568.75 L 412.5 168.75 C 412.5 75.546875 336.953125 0 243.75 0 C 150.546875 0 75 75.546875 75 168.75 L 75 362.5 L 50 362.5 C 43.09375 362.5 37.5 368.09375 37.5 375 L 37.5 419.824219 L 3.664062 453.664062 C 1.320312 456.007812 0 459.183594 0 462.5 L 0 737.5 C 0 744.40625 5.59375 750 12.5 750 Z M 200 725 L 25 725 L 25 675 L 50 675 L 50 700 L 75 700 L 75 675 L 100 675 L 100 700 L 125 700 L 125 675 L 150 675 L 150 700 L 175 700 L 175 675 L 200 675 Z M 637.5 25 L 687.5 25 L 687.5 75 L 637.5 75 Z M 612.5 100 L 712.5 100 L 712.5 237.5 L 612.5 237.5 Z M 650 262.5 L 675 262.5 L 675 312.5 L 650 312.5 Z M 100 168.75 C 100 89.359375 164.359375 25 243.75 25 C 323.140625 25 387.5 89.359375 387.5 168.75 L 387.5 568.75 C 387.5 641.234375 446.265625 700 518.75 700 C 591.234375 700 650 641.234375 650 568.75 L 650 337.5 L 675 337.5 L 675 568.75 C 675 655.039062 605.039062 725 518.75 725 C 432.460938 725 362.5 655.039062 362.5 568.75 L 362.5 168.75 C 362.5 103.167969 309.332031 50 243.75 50 C 178.167969 50 125 103.167969 125 168.75 L 125 362.5 L 100 362.5 Z M 58.835938 433.835938 C 61.179688 431.492188 62.5 428.316406 62.5 425 L 62.5 387.5 L 162.5 387.5 L 162.5 425 C 162.5 428.316406 163.820312 431.492188 166.164062 433.835938 L 200 467.675781 L 200 650 L 25 650 L 25 467.675781 Z M 58.835938 433.835938 " style=" stroke:none;fill-rule:nonzero;fill:rgb(0%,0%,0%);fill-opacity:1;" />
<path d="M 75 557.726562 L 100 545.226562 L 100 600 L 125 600 L 125 507.726562 L 150 520.226562 L 150 550 L 175 550 L 175 512.5 C 175.023438 507.738281 172.34375 503.375 168.085938 501.25 L 125 479.773438 L 125 450 L 100 450 L 100 517.273438 L 56.914062 538.8125 C 52.675781 540.929688 50 545.265625 50 550 L 50 575 L 75 575 Z M 75 557.726562 " style=" stroke:none;fill-rule:nonzero;fill:rgb(0%,0%,0%);fill-opacity:1;" />
</g>
</svg>