<svg height="480pt" viewBox="-80 0 480 480" width="480pt" xmlns="http://www.w3.org/2000/svg"><path d="m88 0h-48c-4.417969 0-8 3.582031-8 8v40.800781c-18.613281 3.828125-31.9765625 20.199219-32 39.199219v352c.0273438 22.082031 17.917969 39.972656 40 40h240c22.082031-.027344 39.972656-17.917969 40-40v-352c-.023438-19-13.386719-35.371094-32-39.199219v-40.800781c0-4.417969-3.582031-8-8-8h-48c-4.417969 0-8 3.582031-8 8v40h-12l-7.199219-9.601562c-10.578125-14.097657-27.175781-22.398438-44.800781-22.398438s-34.222656 8.300781-44.800781 22.398438l-7.199219 9.601562h-12v-40c0-4.417969-3.582031-8-8-8zm-40 16h32v32h-32zm232 448h-240c-13.253906 0-24-10.746094-24-24v-240.207031c6.882812 5.292969 15.316406 8.175781 24 8.207031h96v64c0 4.417969 3.582031 8 8 8h32c4.417969 0 8-3.582031 8-8v-64h96c8.683594-.03125 17.117188-2.914062 24-8.207031v240.207031c0 13.253906-10.746094 24-24 24zm-112-248h-16v-32h16zm0 16v32h-16v-32zm136-144v80c0 13.253906-10.746094 24-24 24h-96v-16c0-4.417969-3.582031-8-8-8h-32c-4.417969 0-8 3.582031-8 8v16h-96c-13.253906 0-24-10.746094-24-24v-80c0-13.253906 10.746094-24 24-24h240c13.253906 0 24 10.746094 24 24zm-64-72h32v32h-32zm-80 16c12.585938.023438 24.429688 5.945312 32 16h-64c7.574219-10.050781 19.417969-15.972656 32-16zm0 0"/><path d="m32 232h16v208h-16zm0 0"/><path d="m48 80h224v16h-224zm0 0"/></svg>