<svg height="496pt" viewBox="0 0 496 496" width="496pt" xmlns="http://www.w3.org/2000/svg"><path d="m280 312c0-17.648438-14.351562-32-32-32s-32 14.351562-32 32 14.351562 32 32 32 32-14.351562 32-32zm-48 0c0-8.824219 7.175781-16 16-16s16 7.175781 16 16-7.175781 16-16 16-16-7.175781-16-16zm0 0"/><path d="m264 360c-17.648438 0-32 14.351562-32 32s14.351562 32 32 32 32-14.351562 32-32-14.351562-32-32-32zm0 48c-8.824219 0-16-7.175781-16-16s7.175781-16 16-16 16 7.175781 16 16-7.175781 16-16 16zm0 0"/><path d="m400 360c-17.648438 0-32 14.351562-32 32s14.351562 32 32 32 32-14.351562 32-32-14.351562-32-32-32zm0 48c-8.824219 0-16-7.175781-16-16s7.175781-16 16-16 16 7.175781 16 16-7.175781 16-16 16zm0 0"/><path d="m408 280h16v16h-16zm0 0"/><path d="m408 312h16v16h-16zm0 0"/><path d="m424 296h16v16h-16zm0 0"/><path d="m392 296h16v16h-16zm0 0"/><path d="m376 296h-80v48h80zm-16 32h-48v-16h48zm0 0"/><path d="m224 56c0-13.230469-10.769531-24-24-24h-16c-13.230469 0-24 10.769531-24 24v112c0 13.230469 10.769531 24 24 24h16c13.230469 0 24-10.769531 24-24zm-40-8h16c4.414062 0 8 3.59375 8 8v8h-32v-8c0-4.40625 3.585938-8 8-8zm24 32v16h-32v-16zm-8 96h-16c-4.414062 0-8-3.59375-8-8v-56h32v56c0 4.40625-3.585938 8-8 8zm0 0"/><path d="m32 288h80v-256h-80zm16-240h48v224h-48zm0 0"/><path d="m64 64h16v192h-16zm0 0"/><path d="m481.902344 308.105469-.863282-4.601563c-6.023437-32.167968-34.152343-55.503906-66.871093-55.503906-10.503907 0-21.03125 2.488281-30.433594 7.183594l-6.636719 3.320312c-7.1875 3.601563-15.234375 5.496094-23.265625 5.496094h-43.65625c-8.039062 0-16.085937-1.894531-23.273437-5.496094l-6.636719-3.320312c-7.546875-3.777344-15.824219-6.121094-24.257813-6.894532v-208.289062c0-22.054688-17.945312-40-40-40h-176.007812c-22.054688 0-40 17.945312-40 40v416c0 22.054688 17.945312 40 40 40h159.929688v-.257812c10.855468 1.28125 22.117187-2.46875 30.007812-10.367188 24.101562-24.101562 56.140625-37.375 90.230469-37.375h23.671875c34.089844 0 66.128906 13.273438 90.222656 37.367188 6.847656 6.855468 15.96875 10.632812 25.65625 10.632812 20.007812 0 36.28125-16.28125 36.28125-36.289062 0-50.726563-4.742188-101.734376-14.097656-151.605469zm-299.804688.007812c-8.632812 46.023438-13.335937 93.03125-14.007812 139.886719h-24.089844v-224h64v38.375c-13.121094 10.199219-21.953125 24.65625-25.039062 41.121094zm277.621094 171.886719c-5.414062 0-10.503906-2.113281-14.34375-5.945312-27.117188-27.117188-63.183594-42.054688-101.542969-42.054688h-23.671875c-38.359375 0-74.425781 14.9375-101.535156 42.054688-3.832031 3.832031-8.929688 5.945312-14.34375 5.945312-11.175781 0-20.28125-9.105469-20.28125-20.289062 0-49.742188 4.648438-99.757813 13.816406-148.65625l.863282-4.613282c2.566406-13.6875 10.320312-25.546875 21.832031-33.410156l3.488281-2.367188v-62.664062h-96v256h40.246094c.699218 5.871094 2.800781 11.328125 5.960937 16h-134.207031c-13.230469 0-24-10.769531-24-24v-416c0-13.230469 10.769531-24 24-24h176c13.230469 0 24 10.769531 24 24v224.289062l9.832031-.289062c8.039063 0 16.089844 1.894531 23.273438 5.496094l6.636719 3.320312c9.402343 4.695313 19.921874 7.183594 30.425781 7.183594h43.65625c10.503906 0 21.03125-2.488281 30.433593-7.183594l6.636719-3.320312c7.195313-3.601563 15.242188-5.496094 23.273438-5.496094 25.023437 0 46.535156 17.847656 51.152343 42.457031l.863282 4.597657c9.167968 48.898437 13.816406 98.914062 13.816406 148.65625 0 11.183593-9.105469 20.289062-20.28125 20.289062zm0 0"/><path d="m64 400c-17.648438 0-32 14.351562-32 32s14.351562 32 32 32 32-14.351562 32-32-14.351562-32-32-32zm0 48c-8.824219 0-16-7.175781-16-16s7.175781-16 16-16 16 7.175781 16 16-7.175781 16-16 16zm0 0"/><path d="m64 320c-17.648438 0-32 14.351562-32 32s14.351562 32 32 32 32-14.351562 32-32-14.351562-32-32-32zm0 48c-8.824219 0-16-7.175781-16-16s7.175781-16 16-16 16 7.175781 16 16-7.175781 16-16 16zm0 0"/></svg>