<?xml version="1.0" encoding="iso-8859-1"?>
<!-- Generator: Adobe Illustrator 22.1.0, SVG Export Plug-In . SVG Version: 6.00 Build 0)  -->
<svg xmlns="http://www.w3.org/2000/svg" xmlns:xlink="http://www.w3.org/1999/xlink" version="1.1" id="Layer_1_1_" x="0px" y="0px" viewBox="0 0 64 64" style="enable-background:new 0 0 64 64;" xml:space="preserve" width="512" height="512">
<g>
	<path d="M44,1H20c-2.757,0-5,2.243-5,5v52.236L17.382,63h29.236L49,58.236V6C49,3.243,46.757,1,44,1z M20,3h24c1.654,0,3,1.346,3,3   v51H17v-2h18V39H17V6C17,4.346,18.346,3,20,3z M17,53V41h16v12H17z M18.618,61l-1-2h28.764l-1,2H18.618z"/>
	<path d="M27,43c-2.206,0-4,1.794-4,4s1.794,4,4,4s4-1.794,4-4S29.206,43,27,43z M28,48.722V47h-2v1.722   c-0.595-0.347-1-0.985-1-1.722c0-1.103,0.897-2,2-2s2,0.897,2,2C29,47.737,28.595,48.375,28,48.722z"/>
	<rect x="19" y="43" width="2" height="2"/>
	<rect x="19" y="47" width="2" height="2"/>
	<path d="M45,5H19v30h26V5z M43,7v6H21V7H43z M21,33V15h22v18H21z"/>
	<path d="M37,55h8V39h-8V55z M39,41h4v12h-4V41z"/>
	<rect x="23" y="9" width="4" height="2"/>
	<rect x="29" y="9" width="4" height="2"/>
	<rect x="35" y="9" width="2" height="2"/>
	<rect x="39" y="9" width="2" height="2"/>
	<path d="M23,23h18v-6H23V23z M25,19h14v2H25V19z"/>
	<path d="M23,31h18v-6H23V31z M25,27h14v2H25V27z"/>
</g>
</svg>
