<svg xmlns="http://www.w3.org/2000/svg" viewBox="-160 251.4 290.6 290.6" widt="60" height="60">
<style type="text/css">
	.st0{fill:#4084F1;}
	.st1{fill:#ffffff;}
</style>
			<circle class="st0" cx="-14.7" cy="396.7" r="79.7"/>

			<path class="st1" d="M-80.3,382.6c-43.9,0-79.7,35.7-79.7,79.7s35.7,79.7,79.7,79.7s79.7-35.7,79.7-79.7S-36.4,382.6-80.3,382.6z
				 M-80.3,532.6c-38.8,0-70.3-31.5-70.3-70.3s31.5-70.3,70.3-70.3S-10,423.5-10,462.3S-41.5,532.6-80.3,532.6z"/>
			<path class="st1" d="M-73.3,415.4h-2.3v-14.1H-85v14.1h-2.3c-14.2,0-25.8,11.6-25.8,25.8c0,14.2,11.6,25.8,25.8,25.8h14.1
				c9,0,16.4,7.4,16.4,16.4c0,9-7.4,16.4-16.4,16.4h-14.1c-9,0-16.4-7.4-16.4-16.4v-7h-9.4v7c0,14.2,11.6,25.8,25.8,25.8h2.3v14.1
				h9.4v-14.1h2.3c14.2,0,25.8-11.6,25.8-25.8s-11.6-25.8-25.8-25.8h-14.1c-9,0-16.4-7.4-16.4-16.4s7.4-16.4,16.4-16.4h14.1
				c9,0,16.4,7.4,16.4,16.4v7h9.4v-7C-47.5,427-59.1,415.4-73.3,415.4z"/>
			<path class="st1" d="M130.6,279.5h-26.3c4.6-2.6,7.5-7.5,7.5-13c0-8.3-6.8-15.1-15.1-15.1c-6.4,0-12.8,2.2-17.8,6.2l-14,11.2
				l-14-11.2c-5-4-11.4-6.2-17.8-6.2c-8.3,0-15.1,6.8-15.1,15.1c0,5.5,3,10.4,7.5,13H-0.6V317h14.1v79.7h37.5h28.1h37.5V317h14.1
				L130.6,279.5L130.6,279.5z M69.7,288.9v18.8h-9.4v-18.8h4.2L65,289l0.5-0.1H69.7z M84.8,264.9c3.4-2.7,7.6-4.2,11.9-4.2
				c3.2,0,5.7,2.6,5.7,5.7c0,2.7-1.8,5-4.5,5.6l-30.5,6.8L84.8,264.9z M33.2,260.7c4.3,0,8.6,1.5,11.9,4.2l17.4,13.9L32,272
				c-2.6-0.6-4.5-2.9-4.5-5.6C27.5,263.3,30.1,260.7,33.2,260.7z M8.8,307.6v-18.8h42.2v18.8H13.4H8.8z M22.8,387.3V317h28.1v70.3
				H22.8z M60.3,387.3V317h9.4v70.3H60.3z M107.2,387.3H79.1V317h28.1V387.3z M121.3,307.6h-4.7H79.1v-18.8h42.2V307.6z"/>
			<path class="st1" d="M-37.1,296l-2-9.1c-42.4,9.4-75.9,42.9-85.3,85.4l9.2,2C-106.7,335.4-76,304.7-37.1,296z"/>
			<path class="st1" d="M7.7,497.3l2,9.2c42.4-9.4,75.9-42.9,85.3-85.4l-9.2-2C77.3,458,46.6,488.7,7.7,497.3z"/>

</svg>
