<svg id="Capa_1" enable-background="new 0 0 512 512" height="512" viewBox="0 0 512 512" width="512" xmlns="http://www.w3.org/2000/svg"><path d="m327.456 512h-197.432c-28.221 0-51.18-22.96-51.18-51.181v-409.639c0-28.221 22.96-51.18 51.18-51.18h247.049c4.15 0 7.513 3.363 7.513 7.513s-3.363 7.513-7.513 7.513h-247.049c-19.936 0-36.155 16.219-36.155 36.154v409.639c0 19.936 16.219 36.155 36.155 36.155h197.431c4.15 0 7.513 3.363 7.513 7.513s-3.363 7.513-7.512 7.513z"/><path d="m381.975 512h-18.281c-4.15 0-7.513-3.363-7.513-7.513s3.363-7.513 7.513-7.513h18.281c19.936 0 36.155-16.219 36.155-36.155v-409.639c0-10.78-4.761-20.92-13.062-27.821-3.191-2.652-3.627-7.389-.975-10.58 2.653-3.19 7.388-3.629 10.58-.975 11.747 9.764 18.484 24.115 18.484 39.376v409.639c-.001 28.221-22.961 51.181-51.182 51.181z"/><path d="m360.712 407.148h-209.424c-13.164 0-23.874-10.71-23.874-23.875v-181.501c0-4.15 3.364-7.513 7.513-7.513s7.513 3.363 7.513 7.513v181.501c0 4.879 3.969 8.849 8.848 8.849h209.424c4.879 0 8.849-3.97 8.849-8.849v-313.526c0-4.878-3.97-8.848-8.849-8.848h-209.424c-4.879 0-8.848 3.97-8.848 8.848v97.542c0 4.15-3.364 7.513-7.513 7.513s-7.513-3.363-7.513-7.513v-97.542c0-13.164 10.71-23.874 23.874-23.874h209.424c13.165 0 23.875 10.71 23.875 23.874v313.526c-.001 13.165-10.71 23.875-23.875 23.875z"/><path d="m273.214 471.366h-33.923c-4.88 0-8.85-3.97-8.85-8.85v-18.699c0-2.621 1.151-5.092 3.158-6.777l16.967-14.229c3.295-2.763 8.079-2.764 11.374-.001l16.961 14.226c2.01 1.685 3.164 4.157 3.164 6.781v18.699c0 4.881-3.971 8.85-8.851 8.85zm-27.748-15.025h21.573v-9.643l-10.787-9.046-10.786 9.046z"/><path d="m337.947 432.729h-11.231c-.166-3.106-3.798-4.787-6.274-2.805l-9.117 7.296c-1.937 1.55-1.937 4.496 0 6.045l9.117 7.296c2.476 1.982 6.108.3 6.274-2.806h11.231c1.717 0 3.113 1.396 3.113 3.113v8.854c0 4.15 3.363 7.513 7.513 7.513s7.513-3.363 7.513-7.513v-8.854c0-10.002-8.137-18.139-18.139-18.139z"/><path d="m186.911 443.771h-22.136c-4.149 0-7.513-3.363-7.513-7.513s3.364-7.513 7.513-7.513h22.136c4.149 0 7.513 3.363 7.513 7.513 0 4.149-3.364 7.513-7.513 7.513z"/><path d="m186.911 467.234h-22.136c-4.149 0-7.513-3.363-7.513-7.513s3.364-7.513 7.513-7.513h22.136c4.149 0 7.513 3.363 7.513 7.513s-3.364 7.513-7.513 7.513z"/><path d="m291.518 124.276h-71.037c-4.149 0-7.513-3.363-7.513-7.513s3.364-7.513 7.513-7.513h71.037c4.15 0 7.513 3.363 7.513 7.513s-3.363 7.513-7.513 7.513z"/><path d="m334.084 187.613h-156.169c-4.149 0-7.513-3.363-7.513-7.513s3.364-7.513 7.513-7.513h156.169c4.15 0 7.513 3.363 7.513 7.513s-3.363 7.513-7.513 7.513z"/><path d="m334.084 218.844h-156.169c-4.149 0-7.513-3.363-7.513-7.513s3.364-7.513 7.513-7.513h156.169c4.15 0 7.513 3.363 7.513 7.513s-3.363 7.513-7.513 7.513z"/><path d="m334.084 250.075h-156.169c-4.149 0-7.513-3.363-7.513-7.513s3.364-7.513 7.513-7.513h156.169c4.15 0 7.513 3.363 7.513 7.513s-3.363 7.513-7.513 7.513z"/><path d="m334.084 281.307h-156.169c-4.149 0-7.513-3.363-7.513-7.513s3.364-7.513 7.513-7.513h156.169c4.15 0 7.513 3.363 7.513 7.513s-3.363 7.513-7.513 7.513z"/><path d="m334.084 312.538h-156.169c-4.149 0-7.513-3.363-7.513-7.513s3.364-7.513 7.513-7.513h156.169c4.15 0 7.513 3.363 7.513 7.513s-3.363 7.513-7.513 7.513z"/><path d="m334.084 343.77h-156.169c-4.149 0-7.513-3.363-7.513-7.513s3.364-7.513 7.513-7.513h156.169c4.15 0 7.513 3.363 7.513 7.513s-3.363 7.513-7.513 7.513z"/></svg>