<?xml version="1.0" encoding="iso-8859-1"?>
<!-- Generator: Adobe Illustrator 19.0.0, SVG Export Plug-In . SVG Version: 6.00 Build 0)  -->
<svg version="1.1" id="Capa_1" xmlns="http://www.w3.org/2000/svg" xmlns:xlink="http://www.w3.org/1999/xlink" x="0px" y="0px"
	 viewBox="0 0 511.999 511.999" style="enable-background:new 0 0 511.999 511.999;" xml:space="preserve">
<g>
	<g>
		<path d="M502.338,164.713l-16.934-11.468c2.764-2.722,4.483-6.502,4.483-10.679V110.57c0-8.271-6.729-15-14.999-15h-68.824
			c-8.271,0-15,6.729-15,15v31.995c0,4.177,1.72,7.957,4.483,10.679l-16.564,11.218l-16.563-11.218
			c2.764-2.722,4.483-6.502,4.483-10.679V110.57c0-8.271-6.729-15-14.999-15H283.08c-8.271,0-15,6.729-15,15v31.995
			c0,4.177,1.72,7.957,4.483,10.679L256,164.462l-16.563-11.217c2.764-2.722,4.483-6.502,4.483-10.679V110.57
			c0-8.271-6.729-15-15-15h-68.824c-8.271,0-14.999,6.729-14.999,15v31.995c0,4.177,1.719,7.957,4.483,10.679l-16.563,11.218
			l-16.564-11.218c2.764-2.722,4.483-6.502,4.483-10.679V110.57c0-8.271-6.729-15-15-15H37.111c-8.271,0-14.999,6.729-14.999,15
			v31.995c0,4.177,1.72,7.957,4.483,10.679L9.662,164.713C3.612,168.811,0,175.62,0,182.927v203.505
			c0,16.541,13.457,29.998,29.997,29.998h83.053c7.662,0,14.659-2.891,19.966-7.635c5.307,4.744,12.304,7.635,19.965,7.635h83.053
			c7.661,0,14.658-2.891,19.965-7.635c5.308,4.744,12.304,7.635,19.966,7.635h83.053c7.661,0,14.658-2.891,19.965-7.635
			c5.308,4.744,12.304,7.635,19.966,7.635h83.053c16.54,0,29.997-13.457,29.997-29.998V182.927
			C512,175.62,508.388,168.811,502.338,164.713z M42.112,115.57h58.823v21.995H42.112V115.57z M20,182.925
			c0-0.663,0.328-1.281,0.878-1.654l24.258-16.429c2.469-1.672,4.048-4.346,4.343-7.278H93.57c0.295,2.933,1.874,5.606,4.343,7.278
			l24.257,16.428c0.434,0.294,0.722,0.742,0.828,1.243c-0.002,0.138-0.013,0.274-0.013,0.412v21.63H20V182.925z M20,224.557h102.984
			v128.878h-20.611V307c0-5.522-4.477-10-10-10c-5.522,0-10,4.478-10,10v46.435H20V224.557z M113.05,396.43H29.997
			c-5.513,0-9.997-4.485-9.997-9.998v-12.997h102.984v12.997c0,0.28,0.014,0.557,0.021,0.835
			C122.579,392.388,118.281,396.43,113.05,396.43z M165.097,115.57h58.823v21.995h-58.823V115.57z M143.862,181.271l24.257-16.429
			c2.469-1.671,4.048-4.345,4.343-7.277h44.092c0.295,2.933,1.874,5.606,4.343,7.278l24.257,16.428
			c0.433,0.293,0.721,0.742,0.827,1.243c-0.002,0.138-0.013,0.274-0.013,0.412v21.63h-102.92v-21.63c0-0.138-0.01-0.275-0.013-0.412
			C143.141,182.013,143.429,181.565,143.862,181.271z M245.968,224.557v128.878h-102.92V224.557H245.968z M236.034,396.43h-83.053
			c-5.231,0-9.528-4.041-9.955-9.163c0.007-0.278,0.021-0.555,0.021-0.835v-12.997h102.92v12.997c0,0.28,0.014,0.557,0.021,0.835
			C245.563,392.388,241.265,396.43,236.034,396.43z M288.08,115.57h58.823v21.995H288.08V115.57z M266.846,181.271l24.258-16.429
			c2.469-1.672,4.048-4.346,4.343-7.278h44.092c0.295,2.933,1.874,5.606,4.343,7.277l24.257,16.429c0,0.001,0,0.001,0.001,0.001
			c0.433,0.293,0.72,0.741,0.826,1.242c-0.002,0.138-0.013,0.274-0.013,0.413v21.63H266.031v-21.63c0-0.138-0.01-0.275-0.013-0.412
			C266.125,182.014,266.413,181.566,266.846,181.271z M368.952,224.557v128.878H266.031V224.557H368.952z M359.019,396.43h-83.053
			c-5.231,0-9.529-4.041-9.956-9.163c0.007-0.278,0.021-0.555,0.021-0.835v-12.997h102.921v12.997c0,0.28,0.014,0.557,0.021,0.835
			C368.547,392.388,364.25,396.43,359.019,396.43z M411.064,115.57h58.823v21.995h-58.823V115.57z M492,386.432
			c0,5.512-4.484,9.998-9.997,9.998H398.95c-5.231,0-9.529-4.041-9.956-9.163c0.007-0.278,0.021-0.555,0.021-0.835v-12.997H492
			V386.432z M492,353.435h-20V307c0-5.522-4.478-10-10-10c-5.522,0-10,4.478-10,10v46.435h-62.984V224.557H492V353.435z
			 M492.001,204.555H389.016v-21.63c0-0.138-0.01-0.275-0.013-0.412c0.106-0.5,0.394-0.948,0.827-1.242l24.258-16.429
			c2.469-1.672,4.048-4.346,4.343-7.278h44.091c0.295,2.933,1.874,5.606,4.343,7.278l24.257,16.428
			c0.551,0.373,0.879,0.991,0.879,1.655V204.555z"/>
	</g>
</g>
<g>
	<g>
		<path d="M469.073,261.18c-1.86-1.86-4.44-2.93-7.07-2.93s-5.21,1.069-7.07,2.93c-1.859,1.86-2.93,4.43-2.93,7.07
			c0,2.63,1.07,5.21,2.93,7.069c1.86,1.86,4.44,2.931,7.07,2.931s5.21-1.07,7.07-2.931c1.859-1.859,2.93-4.439,2.93-7.069
			S470.933,263.039,469.073,261.18z"/>
	</g>
</g>
<g>
	<g>
		<path d="M99.442,261.18c-1.859-1.86-4.439-2.93-7.069-2.93s-5.21,1.069-7.07,2.93c-1.86,1.861-2.93,4.44-2.93,7.07
			s1.069,5.21,2.93,7.069c1.86,1.86,4.44,2.931,7.07,2.931s5.21-1.07,7.069-2.931c1.86-1.859,2.931-4.439,2.931-7.069
			S101.303,263.039,99.442,261.18z"/>
	</g>
</g>
<g>
</g>
<g>
</g>
<g>
</g>
<g>
</g>
<g>
</g>
<g>
</g>
<g>
</g>
<g>
</g>
<g>
</g>
<g>
</g>
<g>
</g>
<g>
</g>
<g>
</g>
<g>
</g>
<g>
</g>
</svg>
