<svg width="27" height="27" xmlns="http://www.w3.org/2000/svg" viewBox="-41 164.9 512 512">
	<path class="st0" d="M320.5,164.9H109.5c-30,0-54.3,24.5-54.3,54.7v402.7c0,30.1,24.4,54.7,54.3,54.7h211.1
		c30,0,54.3-24.5,54.3-54.7V219.6C374.9,189.4,350.5,164.9,320.5,164.9z M354,622.2c0,18.6-15,33.8-33.4,33.8H109.5
		C91,656,76,640.8,76,622.2v-11.3h278L354,622.2L354,622.2z M354,590H76V259.5h278L354,590L354,590z M354,238.6H76v-19
		c0-18.6,15-33.8,33.4-33.8h211.1c18.4,0,33.4,15.1,33.4,33.8L354,238.6L354,238.6z" fill="#3d3d3d"/>

	<path class="st0" d="M215,618.2c-8.4,0-15.2,6.8-15.2,15.2c0,8.4,6.8,15.2,15.2,15.2c8.4,0,15.2-6.8,15.2-15.2
		C230.2,625,223.4,618.2,215,618.2z" fill="#3d3d3d"/>

	<path class="st0" d="M252.6,201.7h-75.2c-5.8,0-10.4,4.7-10.4,10.4s4.7,10.4,10.4,10.4h75.2c5.8,0,10.4-4.7,10.4-10.4
		C263.1,206.4,258.4,201.7,252.6,201.7z" fill="#3d3d3d"/>

</svg>
