<svg id="Layer_3" enable-background="new 0 0 64 64" height="512" viewBox="0 0 64 64" width="512" xmlns="http://www.w3.org/2000/svg"><path d="m58 53v-2h-13v-1c0-.553-.448-1-1-1h-6.356c-.505-.408-1.058-.758-1.644-1.05v-2.95c1.654 0 3-1.346 3-3v-1h2c2.757 0 5-2.243 5-5v-7h1c.552 0 1-.448 1-1v-16c0-.552-.448-1-1-1h-1v-5c0-2.757-2.243-5-5-5h-18c-2.757 0-5 2.243-5 5v5h-1c-.552 0-1 .448-1 1v16c0 .552.448 1 1 1h1v7c0 2.757 2.243 5 5 5h2v1c0 1.654 1.346 3 3 3v2.95c-.586.293-1.139.642-1.644 1.05h-6.356c-.552 0-1 .447-1 1v1h-13v2h13v4h-13v2h13v1c0 .553.448 1 1 1h3v1c0 .553.448 1 1 1h6c.552 0 1-.447 1-1v-4c0-.553-.448-1-1-1h-1v-1c0-1.654 1.346-3 3-3s3 1.346 3 3v1h-1c-.552 0-1 .447-1 1v4c0 .553.448 1 1 1h6c.552 0 1-.447 1-1v-1h3c.552 0 1-.447 1-1v-1h13v-2h-13v-4zm-12-26h-5c-.551 0-1-.449-1-1v-12c0-.551.449-1 1-1h5zm-22 1.816c1.161-.414 2-1.514 2-2.816v-12c0-1.302-.839-2.402-2-2.816v-4.184h16v4.184c-1.161.414-2 1.514-2 2.816v12c0 1.302.839 2.402 2 2.816v4.184h-16zm-4-22.816c0-1.654 1.346-3 3-3h18c1.654 0 3 1.346 3 3v5h-2v-5c0-.552-.448-1-1-1h-18c-.552 0-1 .448-1 1v5h-2zm-2 7h5c.551 0 1 .449 1 1v12c0 .551-.449 1-1 1h-5zm2 23v-7h2v5c0 .553.448 1 1 1h18c.552 0 1-.447 1-1v-5h2v7c0 1.654-1.346 3-3 3h-18c-1.654 0-3-1.346-3-3zm7 6v-1h10v1c0 .552-.449 1-1 1h-8c-.551 0-1-.448-1-1zm3 3h4v2.232c-.644-.147-1.312-.232-2-.232s-1.356.085-2 .232zm-9 14v-8h3.522c-.96 1.431-1.522 3.151-1.522 5v3zm18 2h-4v-2h1c.552 0 1-.447 1-1v-2c0-2.757-2.243-5-5-5s-5 2.243-5 5v2c0 .553.448 1 1 1h1v2h-4v-5c0-3.859 3.14-7 7-7s7 3.141 7 7zm4-2h-2v-3c0-1.849-.562-3.569-1.522-5h3.522z"/><path d="m29 36h6v2h-6z"/></svg>