<svg xmlns="http://www.w3.org/2000/svg" viewBox="0 -21 512 512" width="27" height="27">
	<g fill-rule="evenodd">
		<path d="m465.621094 71.867188h-39.09375v-41.042969c0-16.996094-13.828125-30.824219-30.824219-30.824219h-279.40625c-16.996094 0-30.824219 13.828125-30.824219 30.824219v41.042969h-39.09375c-25.574218 0-46.378906 20.804687-46.378906 46.375v195.527343c0 25.574219 20.804688 46.378907 46.378906 46.378907h79.875v100.636718c0 5.523438 4.476563 10 10 10h239.492188c5.523437 0 10-4.476562 10-10v-100.636718h79.875c25.574218 0 46.378906-20.804688 46.378906-46.378907v-195.527343c0-25.570313-20.804688-46.375-46.378906-46.375zm-360.148438-41.042969c0-5.96875 4.855469-10.824219 10.824219-10.824219h279.40625c5.96875 0 10.824219 4.855469 10.824219 10.824219v41.042969h-301.054688zm260.273438 419.960937h-219.492188v-201.269531h219.492188zm126.253906-137.015625c0 14.546875-11.832031 26.378907-26.378906 26.378907h-79.875v-100.632813c0-5.523437-4.476563-10-10-10h-239.492188c-5.523437 0-10 4.476563-10 10v100.632813h-79.875c-14.546875 0-26.378906-11.832032-26.378906-26.378907v-195.527343c0-14.542969 11.832031-26.375 26.378906-26.375h419.246094c14.542969 0 26.375 11.832031 26.375 26.375zm0 0" fill="#3d3d3d"/>
		
		<path d="m326.285156 340.148438h-140.570312c-5.523438 0-10 4.476562-10 10 0 5.523437 4.476562 10 10 10h140.570312c5.523438 0 10-4.476563 10-10 0-5.523438-4.476562-10-10-10zm0 0" fill="#3d3d3d"/>
		
		<path d="m326.285156 393.371094h-30.285156c-5.523438 0-10 4.476562-10 10 0 5.523437 4.476562 10 10 10h30.285156c5.523438 0 10-4.476563 10-10 0-5.523438-4.476562-10-10-10zm0 0" fill="#3d3d3d"/>
		
		<path d="m216 393.371094h-30.285156c-5.523438 0-10 4.476562-10 10 0 5.523437 4.476562 10 10 10h30.285156c5.523438 0 10-4.476563 10-10 0-5.523438-4.476562-10-10-10zm0 0"  fill="#3d3d3d"/>
		
		<path d="m326.285156 286.925781h-140.570312c-5.523438 0-10 4.476563-10 10 0 5.523438 4.476562 10 10 10h140.570312c5.523438 0 10-4.476562 10-10 0-5.523437-4.476562-10-10-10zm0 0" fill="#3d3d3d"/>
		
		<path d="m398.03125 124.441406h-22.285156c-5.523438 0-10 4.480469-10 10 0 5.523438 4.476562 10 10 10h22.285156c5.523438 0 10-4.476562 10-10 0-5.519531-4.476562-10-10-10zm0 0" fill="#3d3d3d"/>
		
		<path d="m460.78125 124.441406h-22.285156c-5.519532 0-10 4.480469-10 10 0 5.523438 4.480468 10 10 10h22.285156c5.523438 0 10-4.476562 10-10 0-5.519531-4.476562-10-10-10zm0 0" fill="#3d3d3d"/>
		
		<path d="m256 393.371094c-5.507812 0-10 4.492187-10 10 0 5.507812 4.492188 10 10 10s10-4.492188 10-10c0-5.507813-4.492188-10-10-10zm0 0" fill="#3d3d3d"/>
	</g>	
</svg>
