<svg height="512" viewBox="0 0 64 64" width="512" xmlns="http://www.w3.org/2000/svg"><path d="m6 61a1 1 0 0 0 1 1h50a1 1 0 0 0 1-1v-8a1.847 1.847 0 0 0 -.06-.342l-7.9-21.729 5.938-27.719a1 1 0 0 0 -.978-1.21h-46a1 1 0 0 0 -.978 1.21l5.94 27.719-7.902 21.729a1.833 1.833 0 0 0 -.06.342zm6-1v-2h2v2zm44 0h-40v-4h-6v4h-2v-6h48zm-2.237-56-5.572 26h-32.382l-5.572-26zm-9.484 28 5.334 16h-35.226l5.334-16zm-28.579 0h1.913l-6 18h40.774l-6-18h1.913l7.272 20h-47.144z"/><path d="m15.247 8h3.753v-2h-6.247l2.271 10.217 1.952-.434z"/><path d="m47.024 15.783 1.952.434 2.271-10.217h-6.247v2h3.753z"/><path d="m35 57a3 3 0 1 0 -3 3 3 3 0 0 0 3-3zm-3 1a1 1 0 1 1 1-1 1 1 0 0 1 -1 1z"/><path d="m37 56h2v2h-2z"/><path d="m41 56h2v2h-2z"/><path d="m45 56h2v2h-2z"/></svg>