<svg xmlns="http://www.w3.org/2000/svg" height="27" viewBox="0 0 512 512" width="27">

	<path d="m396.097656 512h-279.953125c-11.03125 0-20-8.972656-20-20v-472c0-11.027344 8.96875-20 20-20h279.953125c11.027344 0 20 8.972656 20 20v472c0 11.027344-8.972656 20-20 20zm-279.953125-492v472h279.957031l-.003906-472zm0 0" fill="#3d3d3d"/>
	
	<path d="m256.121094 453c-55.132813 0-99.988282-44.859375-99.988282-100s44.855469-100 99.988282-100c55.132812 0 99.984375 44.859375 99.984375 100s-44.851563 100-99.984375 100zm0-180c-44.105469 0-79.988282 35.886719-79.988282 80s35.882813 80 79.988282 80c44.101562 0 79.984375-35.886719 79.984375-80s-35.878907-80-79.984375-80zm0 0"  fill="#3d3d3d"/>
	
	<path d="m256.121094 418c-35.835938 0-64.992188-29.160156-64.992188-65s29.152344-65 64.992188-65c35.835937 0 64.992187 29.160156 64.992187 65s-29.15625 65-64.992187 65zm0-110c-24.808594 0-44.992188 20.1875-44.992188 45s20.183594 45 44.992188 45 44.992187-20.1875 44.992187-45-20.183593-45-44.992187-45zm0 0" fill="#3d3d3d"/>
	
	<path d="m256.121094 234c-38.59375 0-69.992188-31.402344-69.992188-70s31.398438-70 69.992188-70 69.988281 31.402344 69.988281 70-31.394531 70-69.988281 70zm0-120c-27.566406 0-49.992188 22.429688-49.992188 50s22.425782 50 49.992188 50c27.5625 0 49.988281-22.429688 49.988281-50s-22.425781-50-49.988281-50zm0 0" fill="#3d3d3d"/>
	
	<path d="m256.121094 200c-19.296875 0-34.996094-15.699219-34.996094-35s15.699219-35 34.996094-35 34.996094 15.699219 34.996094 35-15.699219 35-34.996094 35zm0-50c-8.269532 0-14.996094 6.730469-14.996094 15s6.726562 15 14.996094 15c8.269531 0 14.996094-6.730469 14.996094-15s-6.726563-15-14.996094-15zm0 0" fill="#3d3d3d"/>
	
	<path d="m346.589844 73.371094h-139.976563c-5.523437 0-10-4.476563-10-10 0-5.523438 4.476563-10 10-10h139.976563c5.523437 0 10 4.476562 10 10 0 5.523437-4.476563 10-10 10zm0 0" fill="#3d3d3d"/>
	
	<path d="m166.636719 73.371094c-5.523438 0-10.003907-4.476563-10.003907-10 0-5.523438 4.472657-10 9.996094-10h.007813c5.523437 0 10 4.476562 10 10 0 5.523437-4.476563 10-10 10zm0 0" fill="#3d3d3d"/>
	
	<path d="m66 326.003906c-3.535156 0-6.960938-1.882812-8.777344-5.199218-22.886718-41.789063-22.886718-87.820313 0-129.609376 2.648438-4.839843 8.726563-6.617187 13.574219-3.964843 4.84375 2.652343 6.617187 8.730469 3.964844 13.574219-19.777344 36.109374-19.777344 74.28125 0 110.390624 2.652343 4.84375.875 10.921876-3.964844 13.574219-1.527344.835938-3.171875 1.234375-4.796875 1.234375zm0 0" fill="#3d3d3d"/>
	
	<path d="m34.003906 366.003906c-3.6875 0-7.234375-2.050781-8.976562-5.582031-16.605469-33.691406-25.027344-68.824219-25.027344-104.421875s8.421875-70.730469 25.027344-104.421875c2.441406-4.953125 8.4375-6.988281 13.390625-4.546875s6.988281 8.4375 4.546875 13.390625c-15.238282 30.917969-22.964844 63.074219-22.964844 95.578125s7.726562 64.660156 22.964844 95.578125c2.441406 4.953125.40625 10.949219-4.546875 13.390625-1.421875.703125-2.929688 1.035156-4.414063 1.035156zm0 0" fill="#3d3d3d"/>
	
	<path d="m446 326.003906c3.535156 0 6.960938-1.882812 8.777344-5.199218 22.886718-41.789063 22.886718-87.820313 0-129.609376-2.648438-4.839843-8.726563-6.617187-13.574219-3.964843-4.84375 2.652343-6.617187 8.730469-3.964844 13.574219 19.777344 36.109374 19.777344 74.28125 0 110.390624-2.652343 4.84375-.875 10.921876 3.964844 13.574219 1.527344.835938 3.171875 1.234375 4.796875 1.234375zm0 0" fill="#3d3d3d"/>
	
	<path d="m477.996094 366.003906c3.6875 0 7.234375-2.050781 8.976562-5.582031 16.605469-33.691406 25.027344-68.824219 25.027344-104.421875s-8.421875-70.730469-25.027344-104.421875c-2.441406-4.953125-8.4375-6.988281-13.390625-4.546875s-6.988281 8.4375-4.546875 13.390625c15.238282 30.917969 22.964844 63.074219 22.964844 95.578125s-7.726562 64.660156-22.964844 95.578125c-2.441406 4.953125-.40625 10.949219 4.546875 13.390625 1.421875.703125 2.929688 1.035156 4.414063 1.035156zm0 0" fill="#3d3d3d"/>
	
</svg>
