<svg height="512pt" viewBox="0 0 512 512" width="512pt" xmlns="http://www.w3.org/2000/svg"><path d="m47.175781 71.671875h-15.121093v-39.617187h39.617187v15.121093h-24.496094zm0 0"/><path d="m479.941406 399.800781h-39.613281v-15.117187h24.496094v-24.5h15.117187zm0 0"/><path d="m63.660156 384.683594h16.027344v15.117187h-16.027344zm0 0"/><path d="m432.3125 32.054688h16.027344v15.121093h-16.027344zm0 0"/><path d="m39.617188 456.808594h368.652343v15.121094h-368.652343zm0 0"/><path d="m512 63.660156v-63.660156h-512v512h512v-424.296875h-15.121094v329.035156h-353.078125v15.121094h353.078125v65.019531h-481.757812v-65.019531h104.636718v-15.121094h-104.636718v-401.617187h481.757812v48.539062zm0 0"/><path d="m333.332031 285.085938c17.023438-19.027344 26.398438-43.585938 26.398438-69.15625 0-57.195313-46.535157-103.730469-103.730469-103.730469-57.199219 0-103.730469 46.535156-103.730469 103.730469 0 57.195312 46.53125 103.730468 103.730469 103.730468 21.886719 0 42.808594-6.730468 60.515625-19.457031l-8.828125-12.277344c-15.117188 10.867188-32.992188 16.613281-51.6875 16.613281-48.859375 0-88.609375-39.75-88.609375-88.609374 0-48.859376 39.75-88.609376 88.609375-88.609376s88.609375 39.75 88.609375 88.609376c0 21.84375-8.007813 42.824218-22.546875 59.074218zm0 0"/><path d="m256 152.269531c-35.101562 0-63.660156 28.558594-63.660156 63.660157 0 35.101562 28.558594 63.65625 63.660156 63.65625s63.660156-28.554688 63.660156-63.65625c0-35.101563-28.558594-63.660157-63.660156-63.660157zm0 112.199219c-26.765625 0-48.539062-21.777344-48.539062-48.539062 0-26.765626 21.773437-48.539063 48.539062-48.539063s48.539062 21.773437 48.539062 48.539063c0 26.761718-21.773437 48.539062-48.539062 48.539062zm0 0"/><path d="m31.601562 384.683594h16.03125v15.117187h-16.03125zm0 0"/><path d="m31.601562 360.640625h16.03125v15.117187h-16.03125zm0 0"/><path d="m464.367188 32.054688h16.027343v15.121093h-16.027343zm0 0"/><path d="m432.3125 456.808594h40.070312v15.121094h-40.070312zm0 0"/></svg>