<svg id="Outline" height="512" viewBox="0 0 64 64" width="512" xmlns="http://www.w3.org/2000/svg"><path d="m59 35h-8.70551l5.14008-19.70361a3.09085 3.09085 0 0 0 -5.958-1.64551l-6.22651 21.34912h-22.50012l-6.2265-21.34912a3.09079 3.09079 0 0 0 -5.958 1.645l5.14007 19.70412h-8.70551a3.00328 3.00328 0 0 0 -3 3v6a7.00818 7.00818 0 0 0 7 7h3a4 4 0 0 0 8 0h24a4 4 0 0 0 8 0h3a7.00818 7.00818 0 0 0 7-7v-6a3.00328 3.00328 0 0 0 -3-3zm-7.60352-20.78955a1.09071 1.09071 0 0 1 2.10252.58055l-5.27177 20.209h-2.894zm-40.8955.58008a1.09066 1.09066 0 0 1 2.10254-.58008l6.06329 20.78955h-2.894zm5.49902 38.20947a2.00229 2.00229 0 0 1 -2-2h4a2.00229 2.00229 0 0 1 -2 2zm-7-4a5.00588 5.00588 0 0 1 -5-5v-6a1.001 1.001 0 0 1 1-1h36v12zm39 4a2.00229 2.00229 0 0 1 -2-2h4a2.00229 2.00229 0 0 1 -2 2zm12-9a5.00588 5.00588 0 0 1 -5 5h-12v-12h16a1.001 1.001 0 0 1 1 1z"/><path d="m12 40h-2a2.00229 2.00229 0 0 0 -2 2v2a2.00229 2.00229 0 0 0 2 2h2a2.00229 2.00229 0 0 0 2-2v-2a2.00229 2.00229 0 0 0 -2-2zm0 4h-2v-2h2z"/><path d="m54 44h2v2h-2z"/><path d="m50 44h2v2h-2z"/><path d="m46 44h2v2h-2z"/><path d="m54 40h2v2h-2z"/><path d="m50 40h2v2h-2z"/><path d="m46 40h2v2h-2z"/><path d="m36.94922 21.05029a6.99864 6.99864 0 0 0 -9.89844 0l1.41406 1.41407a4.99935 4.99935 0 0 1 7.07032 0z"/><path d="m40.48535 17.51465a12.01392 12.01392 0 0 0 -16.9707 0l1.41406 1.41406a10.01288 10.01288 0 0 1 14.14258 0z"/><path d="m44.02051 13.97949a16.99853 16.99853 0 0 0 -24.041 0l1.41406 1.41406a14.99927 14.99927 0 0 1 21.2129 0z"/><path d="m29 27a3 3 0 1 0 3-3 3.00328 3.00328 0 0 0 -3 3zm4 0a1 1 0 1 1 -1-1 1.001 1.001 0 0 1 1 1z"/></svg>