<?xml version="1.0" encoding="iso-8859-1"?>
<!-- Generator: Adobe Illustrator 19.0.0, SVG Export Plug-In . SVG Version: 6.00 Build 0)  -->
<svg version="1.1" id="Capa_1" xmlns="http://www.w3.org/2000/svg" xmlns:xlink="http://www.w3.org/1999/xlink" x="0px" y="0px"
	 viewBox="0 0 480 480" style="enable-background:new 0 0 480 480;" xml:space="preserve">
<g>
	<g>
		<g>
			<path d="M456,96H224V8c0-4.418-3.582-8-8-8H8C3.582,0,0,3.582,0,8v464c0,4.418,3.582,8,8,8h368
				c4.418-0.001,7.999-3.583,7.998-8.002c0-2.121-0.843-4.154-2.342-5.654l-40-40c-1.5-1.5-3.534-2.344-5.656-2.344h-56v-40h176
				c13.255,0,24-10.745,24-24V120C480,106.745,469.255,96,456,96z M208,464H16V16h192V464z M332.688,440l24,24H224v-80h40v40h-16
				c-4.418,0-8,3.582-8,8s3.582,8,8,8H332.688z M464,360c0,4.418-3.582,8-8,8H224v-16h32v-16h-32V144h32v-16h-32v-16h232
				c4.418,0,8,3.582,8,8V360z"/>
			<polygon points="272,144 432,144 432,336 336,336 336,352 448,352 448,128 272,128 			"/>
			<rect x="304" y="336" width="16" height="16"/>
			<rect x="272" y="336" width="16" height="16"/>
			<rect x="40" y="128" width="144" height="16"/>
			<rect x="40" y="160" width="144" height="16"/>
			<path d="M72,336c-13.255,0-24,10.745-24,24s10.745,24,24,24s24-10.745,24-24S85.255,336,72,336z M72,368c-4.418,0-8-3.582-8-8
				s3.582-8,8-8s8,3.582,8,8S76.418,368,72,368z"/>
			<path d="M176,360c0-13.255-10.745-24-24-24s-24,10.745-24,24s10.745,24,24,24S176,373.255,176,360z M152,368
				c-4.418,0-8-3.582-8-8s3.582-8,8-8s8,3.582,8,8S156.418,368,152,368z"/>
			<rect x="40" y="408" width="16" height="32"/>
			<rect x="72" y="408" width="16" height="32"/>
			<rect x="104" y="408" width="16" height="32"/>
			<rect x="136" y="408" width="16" height="32"/>
			<rect x="168" y="408" width="16" height="32"/>
		</g>
	</g>
</g>
<g>
</g>
<g>
</g>
<g>
</g>
<g>
</g>
<g>
</g>
<g>
</g>
<g>
</g>
<g>
</g>
<g>
</g>
<g>
</g>
<g>
</g>
<g>
</g>
<g>
</g>
<g>
</g>
<g>
</g>
</svg>
